<svg width="132" height="72" viewBox="0 0 132 72" fill="none" xmlns="http://www.w3.org/2000/svg">
<path fill-rule="evenodd" clip-rule="evenodd" d="M35.5264 21.5239C35.8457 21.5244 36.1636 21.4797 36.4703 21.3909C36.7644 21.309 37.0425 21.1784 37.2931 21.0044C37.5342 20.8374 37.7336 20.6176 37.8762 20.3618C38.0243 20.0874 38.0992 19.7797 38.0937 19.4682V8.25669H42.2325V19.5199C42.2489 20.381 42.0583 21.2336 41.6765 22.0064C41.3187 22.7151 40.8133 23.3395 40.194 23.838C39.5563 24.3471 38.8301 24.7352 38.0517 24.9828C37.2393 25.2497 36.3891 25.3844 35.5338 25.3816C34.6753 25.3808 33.8226 25.242 33.0085 24.9705C32.2305 24.7218 31.5045 24.3339 30.8661 23.8257C30.2439 23.3257 29.7331 22.7018 29.3663 21.9941C28.9769 21.2235 28.7819 20.3701 28.798 19.5076V8.24439H32.9368V19.4559C32.9305 19.769 33.0099 20.078 33.1666 20.3495C33.3151 20.6041 33.5174 20.8234 33.7596 20.9921C34.0141 21.1671 34.2965 21.2978 34.5948 21.3786C34.8977 21.4656 35.2112 21.5104 35.5264 21.5115M19.3837 15.0195L33.7152 0.740529C34.1943 0.266213 34.8423 0 35.5177 0C36.1931 0 36.8411 0.266213 37.3203 0.740529L51.6517 15.0195C52.1277 15.4965 52.3948 16.1417 52.3948 16.8142C52.3948 17.4868 52.1277 18.132 51.6517 18.609L37.3203 32.888C36.8411 33.3623 36.1931 33.6285 35.5177 33.6285C34.8423 33.6285 34.1943 33.3623 33.7152 32.888L19.3837 18.609C18.9078 18.132 18.6406 17.4868 18.6406 16.8142C18.6406 16.1417 18.9078 15.4965 19.3837 15.0195Z" fill="white"/>
<path fill-rule="evenodd" clip-rule="evenodd" d="M23.6018 27.329H25.151V44.2619H20.7206V36.7359L17.1131 40.4977H16.6189L13.0385 36.7359V44.2619H8.61794V27.329H10.2142L16.8487 34.663L23.6018 27.329ZM0.743037 34.0007L15.0745 19.7217C15.5537 19.2474 16.2017 18.9812 16.8771 18.9812C17.5525 18.9812 18.2005 19.2474 18.6796 19.7217L33.0111 34.0007C33.487 34.4777 33.7542 35.1229 33.7542 35.7955C33.7542 36.468 33.487 37.1132 33.0111 37.5902L18.6796 51.8692C18.2011 52.3447 17.5529 52.6117 16.8771 52.6117C16.2013 52.6117 15.553 52.3447 15.0745 51.8692L0.743037 37.5902C0.267129 37.1132 0 36.468 0 35.7955C0 35.1229 0.267129 34.4777 0.743037 34.0007Z" fill="white"/>
<path fill-rule="evenodd" clip-rule="evenodd" d="M27.1251 54.789C27.0951 53.4861 27.3559 52.1928 27.8887 51.0026C28.3548 49.9747 29.0276 49.0531 29.8654 48.2945C30.6737 47.5765 31.6157 47.0236 32.6378 46.6672C33.6593 46.3131 34.734 46.1357 35.8155 46.1428C36.675 46.143 37.5305 46.2607 38.3581 46.4924C39.1865 46.72 39.9713 47.0827 40.6807 47.5658C41.4068 48.0628 42.0315 48.6927 42.5216 49.4221C43.0642 50.2424 43.4349 51.1635 43.6113 52.1301H39.3489C39.0625 51.4815 38.5806 50.9378 37.9701 50.5742C37.3056 50.2301 36.564 50.0606 35.8155 50.0818C35.1936 50.0704 34.5772 50.1983 34.0117 50.456C33.5027 50.694 33.0523 51.0403 32.6922 51.4703C32.3289 51.9125 32.0538 52.4197 31.8817 52.9647C31.6933 53.5536 31.5991 54.1684 31.6025 54.7865C31.6025 56.2029 31.9822 57.328 32.7416 58.1618C33.501 58.9955 34.5256 59.4141 35.8155 59.4173C36.5647 59.4427 37.31 59.2979 37.9948 58.9939C38.5763 58.7132 39.0606 58.1626 39.4478 57.342H35.8402V53.6048H43.846C43.8933 54.4362 43.8974 55.2694 43.8584 56.1012C43.8125 56.9363 43.6461 57.7605 43.3642 58.5483C43.0916 59.3729 42.6639 60.1382 42.104 60.8034C41.5942 61.4052 40.984 61.9149 40.3002 62.3101C39.6259 62.6993 38.896 62.984 38.1357 63.1545C37.3732 63.3303 36.5932 63.4195 35.8105 63.4204C34.7305 63.4211 33.6584 63.2379 32.6403 62.8788C31.6196 62.524 30.6779 61.9746 29.8679 61.2613C29.0287 60.5117 28.3555 59.5961 27.8911 58.5729C27.3586 57.3826 27.0979 56.0894 27.1276 54.7865M19.3837 52.9819L33.7152 38.703C34.1936 38.2274 34.8419 37.9604 35.5177 37.9604C36.1935 37.9604 36.8418 38.2274 37.3203 38.703L51.6517 52.9819C52.1277 53.4589 52.3948 54.1041 52.3948 54.7767C52.3948 55.4492 52.1277 56.0944 51.6517 56.5714L37.3203 70.8504C36.8411 71.3247 36.1931 71.5909 35.5177 71.5909C34.8423 71.5909 34.1943 71.3247 33.7152 70.8504L19.3837 56.5714C18.9078 56.0944 18.6406 55.4492 18.6406 54.7767C18.6406 54.1041 18.9078 53.4589 19.3837 52.9819Z" fill="white"/>
<path d="M44.3011 35.7585C44.2716 34.4557 44.5323 33.1625 45.0646 31.9721C45.5312 30.9445 46.2039 30.0229 47.0414 29.2641C47.8491 28.5452 48.7912 27.9922 49.8138 27.6367C50.8338 27.279 51.9076 27.0975 52.9889 27.1C53.8484 27.1015 54.7038 27.2191 55.5315 27.4496C56.3597 27.6778 57.1445 28.0404 57.8542 28.523C58.5804 29.021 59.205 29.6517 59.6951 30.3818C60.2381 31.2019 60.6088 32.1231 60.7848 33.0898H56.5273C56.24 32.441 55.7573 31.8973 55.1461 31.5339C54.4796 31.1973 53.7381 31.0354 52.9914 31.0637C52.3696 31.0525 51.7532 31.1804 51.1876 31.4379C50.6788 31.675 50.2284 32.0204 49.8681 32.4497C49.5048 32.8928 49.2298 33.4008 49.0577 33.9466C48.87 34.5348 48.7767 35.1488 48.7809 35.7659C48.7809 37.1823 49.1598 38.3082 49.9175 39.1436C50.6753 39.979 51.6991 40.3943 52.9889 40.3894C53.7379 40.4142 54.4829 40.2703 55.1683 39.9684C55.7498 39.6877 56.2341 39.1371 56.6212 38.3164H53.0136V34.5719H61.0269C61.0701 35.4035 61.0701 36.2367 61.0269 37.0683C60.9822 37.9083 60.8158 38.7376 60.5327 39.5302C60.2596 40.3545 59.832 41.1197 59.2725 41.7853C58.7623 42.3857 58.1531 42.8952 57.4712 43.2919C56.7955 43.6801 56.065 43.9648 55.3042 44.1364C54.5446 44.309 53.768 44.3957 52.9889 44.3949C51.9088 44.3945 50.8367 44.2105 49.8187 43.8508C48.8029 43.4944 47.8658 42.9461 47.0587 42.2358C46.2201 41.4847 45.547 40.5684 45.0819 39.5449C44.5492 38.3547 44.2884 37.0614 44.3184 35.7585" fill="white"/>
<path d="M71.874 35.3745C72.1328 35.3869 72.3905 35.3341 72.6233 35.2209C72.8561 35.1077 73.0565 34.9378 73.2059 34.727C73.5077 34.3065 73.6724 33.8037 73.6778 33.2868C73.6885 32.7697 73.5355 32.2623 73.2404 31.8367C73.0895 31.6183 72.8842 31.4426 72.6447 31.327C72.4052 31.2113 72.1396 31.1596 71.874 31.1769C71.3576 31.1597 70.8412 31.1572 70.3247 31.1769C69.8083 31.1966 69.2919 31.1769 68.7754 31.1769V35.3745H71.874ZM78.7729 43.575V44.2004H73.9323L71.0265 39.2323H68.7754V44.2004H64.4414V27.3167H71.874C72.8697 27.2919 73.8571 27.5028 74.7551 27.9322C75.5178 28.3078 76.1871 28.8477 76.7146 29.5127C77.2172 30.1578 77.5761 30.9022 77.7672 31.6964C77.969 32.4875 78.0185 33.3095 77.913 34.1189C77.8076 34.9258 77.5449 35.7045 77.1396 36.4109C76.7264 37.1354 76.1504 37.7547 75.4569 38.2204L78.7729 43.575Z" fill="white"/>
<path d="M84.7772 35.7831C84.7462 36.6732 84.9634 37.5544 85.4049 38.3287C85.7857 38.9704 86.3317 39.499 86.9863 39.86C87.6166 40.1973 88.3217 40.3717 89.0372 40.3672C89.7519 40.3727 90.4565 40.1982 91.0856 39.86C91.7413 39.5006 92.2877 38.9716 92.667 38.3287C93.1104 37.555 93.3286 36.6735 93.2971 35.7831C93.3293 34.8966 93.111 34.0188 92.667 33.2499C92.2852 32.6121 91.7392 32.0877 91.0856 31.7309C90.4552 31.3977 89.7507 31.2284 89.0372 31.2385C88.323 31.2293 87.6179 31.3986 86.9863 31.7309C86.3337 32.0891 85.7881 32.6133 85.4049 33.2499C84.9628 34.0195 84.7455 34.8969 84.7772 35.7831ZM97.7275 35.7831C97.7602 37.0999 97.5074 38.4083 96.9862 39.6188C96.5251 40.6581 95.8519 41.5905 95.0094 42.3564C94.1995 43.0845 93.2531 43.6459 92.2247 44.0083C91.2037 44.3741 90.127 44.5615 89.0421 44.5623C87.9546 44.5626 86.8753 44.3752 85.8521 44.0083C84.8234 43.6465 83.8769 43.085 83.0673 42.3564C82.2258 41.5896 81.5527 40.6575 81.0906 39.6188C80.5706 38.4079 80.3178 37.0998 80.3493 35.7831C80.318 34.4665 80.5708 33.1585 81.0906 31.9475C81.5533 30.9091 82.2263 29.9771 83.0673 29.2099C83.8756 28.4825 84.8227 27.9248 85.8521 27.5703C86.8746 27.2117 87.9507 27.0286 89.0347 27.0286C90.1186 27.0288 91.1947 27.2119 92.2173 27.5703C93.2438 27.9263 94.1882 28.4838 94.9946 29.2099C95.8365 29.9764 96.5096 30.9086 96.9714 31.9475C97.4974 33.157 97.7553 34.4653 97.7275 35.7831Z" fill="white"/>
<path d="M107.554 40.5838C107.874 40.5842 108.193 40.5395 108.501 40.4509C108.795 40.3686 109.073 40.2379 109.323 40.0644C109.564 39.8979 109.763 39.6779 109.904 39.4218C110.054 39.148 110.129 38.8399 110.122 38.5282V27.3167H114.268V38.5823C114.284 39.4427 114.093 40.2944 113.712 41.0664C113.355 41.7755 112.849 42.4001 112.229 42.898C111.591 43.407 110.865 43.7958 110.087 44.0453C109.274 44.3102 108.424 44.444 107.569 44.4416C106.715 44.4438 105.866 44.31 105.054 44.0453C104.276 43.7958 103.55 43.407 102.911 42.898C102.288 42.3986 101.776 41.7747 101.409 41.0664C101.02 40.2966 100.825 39.444 100.841 38.5823V27.3167H104.98V38.5282C104.973 38.8413 105.053 39.1503 105.209 39.4218C105.357 39.6769 105.56 39.8963 105.802 40.0644C106.057 40.2394 106.339 40.3701 106.638 40.4509C106.94 40.5378 107.254 40.5825 107.569 40.5838" fill="white"/>
<path d="M125.906 36.0244C126.273 36.0376 126.631 35.9128 126.909 35.6748C127.184 35.4295 127.392 35.1198 127.515 34.7738C127.655 34.402 127.728 34.0087 127.732 33.6118C127.743 33.2176 127.682 32.8247 127.552 32.4522C127.433 32.1008 127.224 31.7861 126.947 31.5388C126.658 31.2926 126.286 31.1634 125.906 31.1769C125.39 31.1597 124.869 31.1573 124.345 31.1769C123.821 31.1966 123.307 31.1769 122.808 31.1769V36.0244H125.906ZM122.808 44.2004H118.469V27.3167H125.924C127.279 27.3167 128.405 27.6302 129.301 28.2571C130.165 28.8471 130.861 29.6493 131.323 30.5861C131.778 31.5261 132.01 32.5581 132 33.6019C132.007 34.6491 131.774 35.684 131.318 36.6276C130.861 37.5667 130.164 38.3693 129.296 38.9541C128.402 39.5745 127.276 39.8847 125.919 39.8847H122.808V44.2004Z" fill="white"/>
<path d="M74.0186 47.972V53.2823H72.4273V49.7027L71.7898 53.2823H70.6754L70.0083 49.7839V53.2823H68.417V47.9818H70.7669C70.8336 48.3019 70.9077 48.6786 70.9843 49.1094L71.2438 50.456L71.6564 47.9941L74.0186 47.972Z" fill="white"/>
<path d="M76.925 51.3817C76.8377 50.781 76.7462 50.0367 76.6507 49.1488C76.4695 50.168 76.355 50.9123 76.3072 51.3817H76.925ZM77.8911 47.972L78.9339 53.2823H77.0757L76.9769 52.3295H76.3196L76.2158 53.2823H74.3379L75.2596 47.9818L77.8911 47.972Z" fill="white"/>
<path d="M81.0662 48.8755V50.0548C81.2117 50.0651 81.3577 50.0432 81.4937 49.9907C81.5727 49.9489 81.6148 49.811 81.6148 49.5771V49.2866C81.6148 49.1225 81.5752 49.0117 81.4961 48.9543C81.3628 48.8892 81.2141 48.8619 81.0662 48.8755ZM79.2451 47.972H80.53C81.1125 47.9581 81.6953 47.9828 82.2745 48.0458C82.5584 48.0858 82.8199 48.2213 83.0158 48.4299C83.2319 48.7108 83.335 49.062 83.3049 49.4147C83.3049 49.8283 83.2357 50.104 83.0998 50.2468C82.8705 50.4187 82.5883 50.5057 82.3017 50.493C82.563 50.5218 82.8129 50.6158 83.0281 50.7662C83.1304 50.8491 83.2095 50.9568 83.2579 51.0789C83.3023 51.3374 83.3181 51.5999 83.3049 51.8618V53.2823H81.6148V51.5171C81.6361 51.3366 81.6053 51.1538 81.5258 50.9903C81.469 50.9238 81.3158 50.8893 81.0662 50.8893V53.2823H79.2451V47.972Z" fill="white"/>
<path d="M88.3458 47.972L87.3055 50.3649L88.4422 53.2724H86.5667L85.8304 51.0001V53.2724H84.0068V47.972H85.8304V50.0301L86.6483 47.972H88.3458Z" fill="white"/>
<path d="M88.7529 47.972H91.7873V49.0306H90.574V50.0424H91.7082V51.0469H90.574V52.2138H91.9108V53.2724H88.7529V47.972Z" fill="white"/>
<path d="M95.9737 47.972V49.0306H94.9038V53.2724H93.0827V49.0306H92.0029V47.972H95.9737Z" fill="white"/>
<path d="M98.2098 47.972H96.3887V53.2724H98.2098V47.972Z" fill="white"/>
<path d="M102.998 47.972V53.2724H101.407L100.461 50.8623V53.2724H98.9385V47.972H100.461L101.476 50.3576V47.972H102.998Z" fill="white"/>
<path d="M107.894 49.9267H106.073V49.4344C106.086 49.2434 106.069 49.0515 106.023 48.8657C105.989 48.7869 105.907 48.75 105.776 48.75C105.733 48.7454 105.69 48.7521 105.65 48.7694C105.611 48.7867 105.577 48.8139 105.551 48.8484C105.499 49.007 105.478 49.1744 105.492 49.3408V51.8839C105.48 52.0423 105.5 52.2013 105.551 52.3517C105.577 52.3926 105.614 52.4251 105.658 52.4453C105.702 52.4654 105.751 52.4722 105.798 52.465C105.85 52.4705 105.902 52.4617 105.948 52.4395C105.995 52.4173 106.035 52.3827 106.063 52.3394C106.119 52.1817 106.143 52.0141 106.132 51.847V51.2192H105.776V50.4167H107.899V53.2823H106.755L106.587 52.9007C106.466 53.0629 106.305 53.1911 106.12 53.2725C105.908 53.3582 105.681 53.4001 105.452 53.3956C105.158 53.3968 104.867 53.3399 104.595 53.2281C104.363 53.1383 104.157 52.9948 103.992 52.8096C103.866 52.6595 103.781 52.4798 103.745 52.2877C103.704 52.0164 103.687 51.7421 103.693 51.4679V49.8923C103.677 49.5222 103.714 49.1517 103.802 48.7918C103.92 48.5106 104.141 48.2845 104.42 48.1591C104.829 47.9534 105.284 47.8551 105.741 47.8735C106.196 47.8577 106.648 47.9418 107.066 48.1197C107.356 48.2326 107.598 48.4411 107.753 48.7106C107.873 49.0245 107.927 49.3597 107.911 49.6953L107.894 49.9267Z" fill="white"/>
</svg>
